<svg width="360" height="360" viewBox="0 0 360 360" fill="none" xmlns="http://www.w3.org/2000/svg">
<path d="M96.0095 78.0576H65.5082L138.179 246.451H168.688L96.0095 78.0576Z" fill="#35495E"/>
<path d="M238.391 217.968C204.566 217.968 177.149 190.551 177.149 156.726C177.149 122.9 204.566 95.4834 238.391 95.4834C266.232 95.4834 289.729 114.062 297.171 139.501L324.341 130.917C313.253 93.9444 278.969 67 238.385 67C200.345 67 167.833 90.6746 154.781 124.09L122.166 208.815L65.5014 78.0576H35L107.678 246.451H138.152H138.179L138.166 246.417L157.627 195.86C172.163 225.807 202.869 246.451 238.391 246.451C278.976 246.451 313.26 219.507 324.348 182.534L297.178 173.95C289.735 199.389 266.232 217.968 238.391 217.968Z" fill="#41B883"/>
<path d="M238.391 189.361C220.367 189.361 205.756 174.75 205.756 156.726C205.756 138.701 220.367 124.09 238.391 124.09C253.44 124.09 266.102 134.275 269.878 148.127L297.178 139.495C289.735 114.062 266.239 95.4767 238.398 95.4767C213.267 95.4767 191.678 110.614 182.232 132.271L182.184 132.169L138.097 246.451H168.599L188.997 192.918C200.14 208.104 218.116 217.961 238.398 217.961C266.239 217.961 289.735 199.382 297.178 173.943L269.878 165.317C266.102 179.176 253.44 189.361 238.391 189.361Z" fill="#35495E"/>
<path d="M93.0123 284.279H94.8934L97.1028 289.614L99.3191 284.279H101.2L98.0468 291.885H96.1657L93.0123 284.279Z" fill="#35495E"/>
<path d="M105.325 284.279H107.062V291.885H105.325V284.279Z" fill="#35495E"/>
<path d="M114.019 286.016H111.303V284.279H118.479V286.016H115.763V291.885H114.026V286.016H114.019Z" fill="#35495E"/>
<path d="M122.713 284.279H128.692V286.016H124.451V287.268H128.035V288.896H124.451V290.148H128.692V291.885H122.713V284.279Z" fill="#35495E"/>
<path d="M133.254 284.279H137.277C137.769 284.279 138.221 284.402 138.638 284.641C139.055 284.881 139.383 285.216 139.63 285.633C139.869 286.05 139.992 286.502 139.992 286.994C139.992 287.487 139.869 287.938 139.63 288.355C139.39 288.773 139.055 289.101 138.638 289.347C138.221 289.594 137.769 289.71 137.277 289.71H134.992V291.885H133.254V284.279ZM137.277 287.972C137.55 287.972 137.783 287.877 137.974 287.685C138.166 287.494 138.255 287.261 138.255 286.994C138.255 286.721 138.159 286.488 137.974 286.297C137.783 286.105 137.557 286.016 137.277 286.016H134.992V287.972H137.277V287.972Z" fill="#35495E"/>
<path d="M144.493 284.279H148.515C149.008 284.279 149.459 284.402 149.877 284.641C150.294 284.881 150.622 285.216 150.868 285.633C151.108 286.05 151.231 286.502 151.231 286.994C151.231 287.555 151.074 288.055 150.766 288.513C150.458 288.964 150.054 289.299 149.555 289.505L151.34 291.885H149.165L147.537 289.71H146.231V291.885H144.493V284.279V284.279ZM148.515 287.972C148.789 287.972 149.022 287.877 149.213 287.685C149.405 287.494 149.493 287.261 149.493 286.994C149.493 286.721 149.398 286.488 149.213 286.297C149.022 286.105 148.796 286.016 148.515 286.016H146.231V287.972H148.515V287.972Z" fill="#35495E"/>
<path d="M155.691 284.279H161.669V286.016H157.428V287.268H161.013V288.896H157.428V290.148H161.669V291.885H155.691V284.279Z" fill="#35495E"/>
<path d="M167.621 291.762C167.135 291.605 166.718 291.379 166.369 291.085C166.02 290.791 165.794 290.435 165.692 290.031L167.374 289.621C167.388 289.682 167.477 289.771 167.627 289.874C167.785 289.977 167.983 290.066 168.236 290.148C168.489 290.23 168.77 290.264 169.078 290.264C169.468 290.264 169.803 290.189 170.07 290.038C170.343 289.888 170.48 289.717 170.48 289.525C170.48 289.429 170.439 289.354 170.364 289.293C170.288 289.231 170.145 289.163 169.926 289.094C169.714 289.019 169.351 288.916 168.845 288.78C168.243 288.622 167.757 288.472 167.395 288.342C167.032 288.212 166.69 287.986 166.383 287.678C166.075 287.37 165.924 286.967 165.924 286.467C165.924 285.989 166.075 285.578 166.369 285.236C166.663 284.894 167.06 284.634 167.545 284.456C168.031 284.279 168.544 284.19 169.078 284.19C169.591 284.19 170.07 284.279 170.514 284.443C170.959 284.614 171.328 284.853 171.622 285.154C171.916 285.455 172.108 285.797 172.19 286.173L170.494 286.543C170.473 286.454 170.398 286.344 170.275 286.214C170.152 286.078 169.987 285.961 169.782 285.859C169.577 285.756 169.344 285.708 169.084 285.708C168.701 285.708 168.373 285.783 168.099 285.934C167.826 286.084 167.689 286.255 167.689 286.447C167.689 286.543 167.73 286.618 167.805 286.68C167.881 286.741 168.024 286.81 168.243 286.878C168.455 286.953 168.811 287.056 169.31 287.193C169.892 287.343 170.391 287.5 170.801 287.658C171.219 287.815 171.595 288.054 171.937 288.383C172.279 288.704 172.45 289.115 172.45 289.614C172.45 290.011 172.341 290.373 172.122 290.702C171.903 291.03 171.581 291.304 171.171 291.529C170.884 291.68 170.555 291.796 170.193 291.885C169.83 291.967 169.461 292.008 169.084 292.008C168.592 291.995 168.106 291.912 167.621 291.762Z" fill="#35495E"/>
<path d="M178.073 291.762C177.587 291.605 177.17 291.379 176.821 291.085C176.472 290.791 176.246 290.435 176.144 290.031L177.826 289.621C177.84 289.682 177.929 289.771 178.08 289.874C178.237 289.977 178.435 290.066 178.688 290.148C178.941 290.23 179.222 290.264 179.53 290.264C179.92 290.264 180.255 290.189 180.522 290.038C180.795 289.888 180.932 289.717 180.932 289.525C180.932 289.429 180.891 289.354 180.816 289.293C180.741 289.231 180.597 289.163 180.378 289.094C180.166 289.019 179.803 288.916 179.297 288.78C178.695 288.622 178.21 288.472 177.847 288.342C177.484 288.212 177.142 287.986 176.835 287.678C176.527 287.37 176.376 286.967 176.376 286.467C176.376 285.989 176.527 285.578 176.821 285.236C177.115 284.894 177.512 284.634 177.997 284.456C178.483 284.279 178.996 284.19 179.53 284.19C180.043 284.19 180.522 284.279 180.966 284.443C181.411 284.614 181.78 284.853 182.074 285.154C182.369 285.455 182.56 285.797 182.642 286.173L180.946 286.543C180.925 286.454 180.85 286.344 180.727 286.214C180.604 286.078 180.44 285.961 180.234 285.859C180.029 285.756 179.797 285.708 179.537 285.708C179.154 285.708 178.825 285.783 178.552 285.934C178.278 286.084 178.141 286.255 178.141 286.447C178.141 286.543 178.182 286.618 178.257 286.68C178.333 286.741 178.476 286.81 178.695 286.878C178.907 286.953 179.263 287.056 179.762 287.193C180.344 287.343 180.843 287.5 181.254 287.658C181.671 287.815 182.047 288.054 182.389 288.383C182.731 288.704 182.902 289.115 182.902 289.614C182.902 290.011 182.793 290.373 182.574 290.702C182.355 291.03 182.033 291.304 181.623 291.529C181.336 291.68 181.007 291.796 180.645 291.885C180.282 291.967 179.913 292.008 179.537 292.008C179.044 291.995 178.558 291.912 178.073 291.762Z" fill="#35495E"/>
<path d="M186.856 287.268H190.119V288.896H186.856V287.268Z" fill="#35495E"/>
<path d="M196.405 291.468C195.769 291.119 195.269 290.64 194.893 290.045C194.517 289.45 194.332 288.793 194.332 288.082C194.332 287.37 194.517 286.721 194.893 286.119C195.269 285.517 195.769 285.045 196.405 284.696C197.041 284.347 197.732 284.169 198.478 284.169C199.141 284.169 199.777 284.313 200.366 284.607C200.961 284.894 201.446 285.298 201.829 285.804L200.441 286.851C200.215 286.563 199.928 286.331 199.579 286.166C199.23 286.002 198.861 285.913 198.471 285.913C198.033 285.913 197.636 286.009 197.267 286.208C196.897 286.406 196.61 286.666 196.391 287.001C196.172 287.336 196.063 287.699 196.063 288.089C196.063 288.479 196.172 288.841 196.391 289.176C196.61 289.511 196.897 289.771 197.267 289.97C197.629 290.168 198.033 290.264 198.471 290.264C198.861 290.264 199.23 290.182 199.579 290.011C199.928 289.847 200.215 289.614 200.441 289.327L201.829 290.373C201.446 290.88 200.954 291.276 200.366 291.57C199.77 291.858 199.141 292.001 198.478 292.001C197.725 291.995 197.034 291.817 196.405 291.468Z" fill="#35495E"/>
<path d="M207.869 291.522C207.336 291.208 206.912 290.791 206.604 290.257C206.289 289.723 206.139 289.142 206.139 288.513V284.272H207.876V288.513C207.876 288.827 207.951 289.115 208.109 289.381C208.266 289.648 208.478 289.86 208.745 290.018C209.012 290.175 209.306 290.25 209.614 290.25C209.928 290.25 210.216 290.175 210.482 290.018C210.749 289.86 210.961 289.648 211.119 289.381C211.276 289.115 211.351 288.821 211.351 288.513V284.272H213.089V288.513C213.089 289.142 212.931 289.723 212.623 290.257C212.309 290.791 211.892 291.215 211.358 291.522C210.824 291.83 210.243 291.988 209.614 291.988C208.984 291.988 208.403 291.837 207.869 291.522Z" fill="#35495E"/>
<path d="M219.156 291.762C218.67 291.605 218.253 291.379 217.904 291.085C217.555 290.791 217.33 290.435 217.227 290.031L218.91 289.621C218.924 289.682 219.012 289.771 219.163 289.874C219.32 289.977 219.519 290.066 219.772 290.148C220.025 290.23 220.305 290.264 220.613 290.264C221.003 290.264 221.338 290.189 221.605 290.038C221.879 289.888 222.015 289.717 222.015 289.525C222.015 289.429 221.974 289.354 221.899 289.293C221.824 289.231 221.68 289.163 221.461 289.094C221.249 289.019 220.887 288.916 220.381 288.78C219.779 288.622 219.293 288.472 218.93 288.342C218.568 288.212 218.226 287.986 217.918 287.678C217.61 287.37 217.46 286.967 217.46 286.467C217.46 285.989 217.61 285.578 217.904 285.236C218.198 284.894 218.595 284.634 219.081 284.456C219.567 284.279 220.08 284.19 220.613 284.19C221.126 284.19 221.605 284.279 222.05 284.443C222.494 284.614 222.864 284.853 223.158 285.154C223.452 285.455 223.643 285.797 223.725 286.173L222.029 286.543C222.009 286.454 221.933 286.344 221.81 286.214C221.687 286.078 221.523 285.961 221.318 285.859C221.112 285.756 220.88 285.708 220.62 285.708C220.237 285.708 219.909 285.783 219.635 285.934C219.361 286.084 219.224 286.255 219.224 286.447C219.224 286.543 219.266 286.618 219.341 286.68C219.416 286.741 219.56 286.81 219.779 286.878C219.991 286.953 220.346 287.056 220.846 287.193C221.427 287.343 221.926 287.5 222.337 287.658C222.754 287.815 223.13 288.054 223.472 288.383C223.814 288.704 223.985 289.115 223.985 289.614C223.985 290.011 223.876 290.373 223.657 290.702C223.438 291.03 223.117 291.304 222.706 291.529C222.419 291.68 222.091 291.796 221.728 291.885C221.366 291.967 220.996 292.008 220.62 292.008C220.127 291.995 219.642 291.912 219.156 291.762Z" fill="#35495E"/>
<path d="M230.285 286.016H227.57V284.279H234.745V286.016H232.03V291.885H230.292V286.016H230.285Z" fill="#35495E"/>
<path d="M240.43 291.468C239.835 291.119 239.356 290.64 239.007 290.045C238.658 289.45 238.48 288.793 238.48 288.082C238.48 287.37 238.658 286.721 239.007 286.119C239.356 285.523 239.835 285.045 240.43 284.696C241.025 284.347 241.682 284.169 242.393 284.169C243.104 284.169 243.754 284.347 244.356 284.696C244.958 285.045 245.43 285.523 245.779 286.119C246.128 286.714 246.306 287.37 246.306 288.082C246.306 288.793 246.128 289.443 245.779 290.045C245.43 290.647 244.951 291.119 244.356 291.468C243.761 291.817 243.104 291.995 242.393 291.995C241.682 291.995 241.025 291.817 240.43 291.468ZM243.474 289.963C243.809 289.765 244.069 289.505 244.267 289.169C244.466 288.834 244.561 288.472 244.561 288.082C244.561 287.692 244.466 287.329 244.267 286.994C244.069 286.659 243.809 286.399 243.474 286.201C243.139 286.002 242.776 285.907 242.386 285.907C241.996 285.907 241.634 286.002 241.298 286.201C240.963 286.399 240.703 286.659 240.505 286.994C240.307 287.329 240.211 287.692 240.211 288.082C240.211 288.472 240.307 288.834 240.505 289.169C240.703 289.505 240.963 289.765 241.298 289.963C241.634 290.161 241.996 290.257 242.386 290.257C242.776 290.257 243.145 290.154 243.474 289.963Z" fill="#35495E"/>
<path d="M250.8 284.279H252.613L254.774 289.518L257.025 284.279H258.837V291.885H257.1V288.513L255.657 291.885H253.871L252.537 288.65V291.885H250.8V284.279V284.279Z" fill="#35495E"/>
</svg>
